<?xml version="1.0" encoding="utf-8"?>
<!-- Uploaded to: SVG Repo, www.svgrepo.com, Generator: SVG Repo Mixer Tools -->
<svg fill="000000" width="800px" height="800px" viewBox="0 0 32 32" version="1.1" xmlns="http://www.w3.org/2000/svg">
<title>circular-saw</title>
<path style="fill:#00ff00;" d="M16 1v4.5h-10.5l3 3-7.5 7.5h4.5v10.5l3-3 7.5 7.5v-4.5h10.5l-3-3 7.5-7.5h-4.5v-10.5l-3 3-7.5-7.5zM16 8.5c4.142 0 7.5 3.358 7.5 7.5s-3.358 7.5-7.5 7.5-7.5-3.358-7.5-7.5c0-4.142 3.358-7.5 7.5-7.5zM19 16c0 1.657-1.343 3-3 3s-3-1.343-3-3 1.343-3 3-3 3 1.343 3 3z"></path>
</svg>